<svg width="76" height="57" viewBox="0 0 76 57" fill="none" xmlns="http://www.w3.org/2000/svg">
<path d="M45.6224 7H48.615L4.80699 55.8465H2.00006L45.6224 7Z" fill="black" stroke="black"/>
<path d="M18.1169 17.4141H3.48779L32.7461 46.7963H47.2513L18.1169 17.4141Z" fill="white" stroke="black"/>
<path d="M48.4414 28.9785C48.9154 28.623 49.2624 28.276 49.4824 27.9375C49.7194 27.599 49.9056 27.2604 50.041 26.9219C50.1764 26.5833 50.2865 26.2279 50.3711 25.8555C50.4557 25.4661 50.5911 25.043 50.7773 24.5859C50.7096 24.4674 50.6673 24.3659 50.6504 24.2812C50.6504 24.1797 50.6504 24.0612 50.6504 23.9258C50.6504 23.7904 50.6673 23.6296 50.7012 23.4434C50.752 23.2572 50.8197 23.0879 50.9043 22.9355C50.9889 22.7663 51.0905 22.6224 51.209 22.5039C51.3275 22.3854 51.4714 22.3262 51.6406 22.3262C51.6237 22.3939 51.7168 22.4701 51.9199 22.5547C52.14 22.6393 52.4023 22.7324 52.707 22.834C53.0286 22.9355 53.3672 23.0456 53.7227 23.1641C54.0781 23.2826 54.3913 23.4095 54.6621 23.5449C54.9668 23.7142 55.1784 23.9004 55.2969 24.1035C55.4323 24.2897 55.5 24.5605 55.5 24.916C55.5 25.2376 55.4577 25.6016 55.373 26.0078C55.3053 26.4141 55.2292 26.8288 55.1445 27.252C55.0768 27.6582 55.0007 28.0729 54.916 28.4961C54.8483 28.9023 54.8145 29.2747 54.8145 29.6133V30.2734C54.7975 30.4258 54.8314 30.5104 54.916 30.5273C55.0176 30.5273 55.1107 30.5273 55.1953 30.5273C55.3984 30.5273 55.5846 30.4935 55.7539 30.4258C55.9232 30.3581 56.0924 30.2819 56.2617 30.1973C56.4479 30.1126 56.6257 30.0365 56.7949 29.9688C56.9642 29.8841 57.1419 29.8249 57.3281 29.791L59.5625 28.4199C59.6302 28.3014 59.7148 28.2083 59.8164 28.1406C59.9349 28.056 60.0449 27.9798 60.1465 27.9121C60.3158 27.8105 60.5189 27.6667 60.7559 27.4805C60.8743 27.3789 61.0013 27.2773 61.1367 27.1758H61.8984C61.9492 27.1758 61.9831 27.2266 62 27.3281C62.0169 27.4297 62.0254 27.5059 62.0254 27.5566C62.0254 27.7598 61.8815 28.0137 61.5938 28.3184C61.306 28.623 60.9336 28.9362 60.4766 29.2578C60.0195 29.5794 59.5117 29.901 58.9531 30.2227C58.3945 30.5273 57.8444 30.8066 57.3027 31.0605C56.778 31.3145 56.2871 31.5176 55.8301 31.6699C55.39 31.8223 55.0514 31.8984 54.8145 31.8984C54.5098 31.8984 54.2643 31.8223 54.0781 31.6699C53.8919 31.5176 53.7396 31.3314 53.6211 31.1113C53.5026 30.8913 53.418 30.6543 53.3672 30.4004C53.3333 30.1296 53.3164 29.8672 53.3164 29.6133C53.3164 29.4271 53.3757 29.1647 53.4941 28.8262C53.6126 28.4876 53.748 28.1406 53.9004 27.7852C54.0527 27.4297 54.1882 27.0827 54.3066 26.7441C54.4251 26.4056 54.4844 26.1348 54.4844 25.9316C54.4844 25.9147 54.3574 25.847 54.1035 25.7285C53.8665 25.61 53.6042 25.4831 53.3164 25.3477C53.0286 25.1953 52.7578 25.0684 52.5039 24.9668C52.2669 24.8483 52.1484 24.7806 52.1484 24.7637C51.776 25.153 51.5137 25.5677 51.3613 26.0078C51.2259 26.4479 51.082 26.9049 50.9297 27.3789C50.7943 27.8529 50.5827 28.3268 50.2949 28.8008C50.0241 29.2747 49.5586 29.7402 48.8984 30.1973C48.8815 30.1973 48.8477 30.1888 48.7969 30.1719C48.7292 30.1549 48.6699 30.1126 48.6191 30.0449C48.5514 29.9603 48.5007 29.8418 48.4668 29.6895C48.4329 29.5202 48.4245 29.2832 48.4414 28.9785ZM62.7617 44.3906C62.6771 44.1367 62.6009 43.8997 62.5332 43.6797C62.4824 43.4596 62.4486 43.248 62.4316 43.0449C62.4147 42.8587 62.3978 42.6641 62.3809 42.4609C62.3809 42.2747 62.3809 42.0462 62.3809 41.7754C62.3809 41.7415 62.3809 41.6738 62.3809 41.5723C62.3809 41.4876 62.3809 41.3861 62.3809 41.2676C62.3809 41.166 62.3809 41.0645 62.3809 40.9629C62.3978 40.8783 62.4062 40.819 62.4062 40.7852C62.5924 39.9557 62.7956 39.1348 63.0156 38.3223C63.2526 37.5267 63.5319 36.748 63.8535 35.9863C64.1751 35.2415 64.5645 34.5306 65.0215 33.8535C65.4785 33.1934 66.0456 32.5755 66.7227 32C66.7396 31.9154 66.765 31.7461 66.7988 31.4922C66.8327 31.2383 66.875 30.9759 66.9258 30.7051C66.9766 30.4342 67.0104 30.1803 67.0273 29.9434C67.0612 29.6895 67.0866 29.5033 67.1035 29.3848C67.1035 29.3509 67.0951 29.2747 67.0781 29.1562C67.0781 29.0208 67.0781 28.9362 67.0781 28.9023H67.002C66.4095 29.207 65.8424 29.4779 65.3008 29.7148C64.7591 29.9349 64.1667 30.0449 63.5234 30.0449C63.168 30.0449 62.8633 29.9857 62.6094 29.8672C62.3724 29.7487 62.1777 29.5879 62.0254 29.3848C61.873 29.1816 61.7546 28.9447 61.6699 28.6738C61.6022 28.403 61.5599 28.1068 61.543 27.7852L62.1523 25.9316C62.3047 25.5085 62.4909 25.0599 62.7109 24.5859C62.9479 24.0951 63.2103 23.6296 63.498 23.1895C63.8027 22.7493 64.1497 22.3516 64.5391 21.9961C64.9284 21.6237 65.3685 21.3613 65.8594 21.209C66.5195 21.1074 67.1289 21.1243 67.6875 21.2598C68.263 21.3952 68.7624 21.5898 69.1855 21.8438C69.6087 22.0977 69.9473 22.377 70.2012 22.6816C70.472 22.9694 70.6328 23.2233 70.6836 23.4434C70.6497 23.6973 70.5736 23.9681 70.4551 24.2559C70.3366 24.5267 70.2012 24.806 70.0488 25.0938C69.9134 25.3646 69.7695 25.6185 69.6172 25.8555C69.4818 26.0755 69.3802 26.2617 69.3125 26.4141C69.1771 26.7188 69.0586 27.0404 68.957 27.3789C68.8555 27.7174 68.7624 28.0645 68.6777 28.4199C68.61 28.7754 68.5508 29.1393 68.5 29.5117C68.4661 29.8672 68.4492 30.1973 68.4492 30.502V30.8828C69.3125 30.375 70.2435 29.9772 71.2422 29.6895C72.2409 29.4017 73.2311 29.2578 74.2129 29.2578C74.3314 29.2578 74.4837 29.2578 74.6699 29.2578C74.873 29.2578 75.0592 29.2832 75.2285 29.334C75.4147 29.3678 75.5755 29.444 75.7109 29.5625C75.8464 29.6641 75.9141 29.8164 75.9141 30.0195C75.9141 30.3411 75.7363 30.502 75.3809 30.502C75.3301 30.502 75.2116 30.4935 75.0254 30.4766C74.8392 30.4427 74.7122 30.4089 74.6445 30.375C74.526 30.3919 74.3229 30.4258 74.0352 30.4766C73.7474 30.5273 73.4342 30.5866 73.0957 30.6543C72.7572 30.722 72.444 30.7897 72.1562 30.8574C71.8685 30.9251 71.6654 30.9674 71.5469 30.9844C71.4961 31.0013 71.3945 31.0436 71.2422 31.1113C71.1068 31.1621 70.9544 31.2214 70.7852 31.2891C70.6159 31.3568 70.4466 31.4245 70.2773 31.4922C70.125 31.543 70.0234 31.5938 69.9727 31.6445C69.8372 31.6784 69.6764 31.7461 69.4902 31.8477C69.321 31.9323 69.1517 32.0169 68.9824 32.1016C68.8132 32.2031 68.6608 32.2878 68.5254 32.3555C68.4069 32.4401 68.3477 32.4909 68.3477 32.5078L68.0938 32.8633L67.4844 39.2871C67.4336 39.7272 67.3066 40.2604 67.1035 40.8867C66.9173 41.513 66.6634 42.1139 66.3418 42.6895C66.0202 43.265 65.6224 43.7474 65.1484 44.1367C64.6914 44.543 64.1667 44.7461 63.5742 44.7461C63.4049 44.7461 63.2526 44.7207 63.1172 44.6699C62.9987 44.6361 62.8802 44.543 62.7617 44.3906ZM63.625 41.9023C63.6419 42.0547 63.6589 42.2747 63.6758 42.5625C63.7096 42.8503 63.7689 43.0872 63.8535 43.2734C64.1751 43.1888 64.4714 42.9518 64.7422 42.5625C65.013 42.1901 65.2415 41.7669 65.4277 41.293C65.6139 40.819 65.7663 40.3451 65.8848 39.8711C66.0033 39.4141 66.0794 39.0586 66.1133 38.8047C66.181 38.4154 66.2318 38.043 66.2656 37.6875C66.3164 37.349 66.3587 37.0189 66.3926 36.6973C66.4264 36.3926 66.4518 36.0879 66.4688 35.7832C66.4857 35.4785 66.4941 35.1484 66.4941 34.793C66.4941 34.7422 66.4857 34.6237 66.4688 34.4375C66.4688 34.2682 66.4688 34.1582 66.4688 34.1074C66.0117 34.6999 65.6309 35.3008 65.3262 35.9102C65.0215 36.5195 64.7591 37.1374 64.5391 37.7637C64.3359 38.4069 64.1582 39.0671 64.0059 39.7441C63.8704 40.4382 63.7435 41.1576 63.625 41.9023ZM63.0156 28.2676C63.0664 28.403 63.1341 28.5215 63.2188 28.623C63.3203 28.7246 63.4557 28.7754 63.625 28.7754C64.319 28.7754 64.9368 28.6315 65.4785 28.3438C66.0371 28.0391 66.528 27.6497 66.9512 27.1758C67.3743 26.7018 67.7383 26.1855 68.043 25.627C68.3646 25.0684 68.6354 24.5098 68.8555 23.9512V23.8496C68.5846 23.291 68.2715 22.9355 67.916 22.7832C67.5775 22.6139 67.2135 22.5885 66.8242 22.707C66.4518 22.8086 66.071 23.0286 65.6816 23.3672C65.2923 23.6888 64.9199 24.0612 64.5645 24.4844C64.2259 24.8906 63.9212 25.3223 63.6504 25.7793C63.3796 26.2363 63.168 26.6595 63.0156 27.0488C62.8633 27.4212 62.7786 27.7259 62.7617 27.9629C62.7448 28.1999 62.8294 28.3014 63.0156 28.2676Z" fill="#AD88C6"/>
</svg>
